<svg width="24" height="24" viewBox="0 0 24 24" fill="none" xmlns="http://www.w3.org/2000/svg">
<mask id="mask0_1_56737" style="mask-type:alpha" maskUnits="userSpaceOnUse" x="4" y="1" width="16" height="23">
<path fill-rule="evenodd" clip-rule="evenodd" d="M12.0005 1C16.4184 1 20 4.64365 20 9.13811C20 10.6331 19.6041 12.0343 18.9129 13.2372L12.8386 22.5695C12.5373 23.0324 11.9179 23.1634 11.455 22.8621C11.3381 22.786 11.2385 22.6864 11.1624 22.5695L5.08815 13.2372C4.39692 12.0343 4 10.6331 4 9.13811C4 4.64365 7.58158 1 12.0005 1ZM11.7936 4.15726L10.8314 7.26336H7.71743C7.50719 7.26336 7.41982 7.54557 7.58985 7.67514L10.109 9.59488L9.14683 12.701C9.08185 12.9107 9.31071 13.0851 9.48082 12.9555L12 11.0358L14.5192 12.9555C14.6894 13.0851 14.9182 12.9107 14.8532 12.701L13.891 9.59488L16.4101 7.67514C16.5803 7.54557 16.4928 7.26336 16.2825 7.26336H13.1687L12.2064 4.15726C12.1414 3.94758 11.8586 3.94758 11.7936 4.15726Z" fill="#24262C"/>
</mask>
<g mask="url(#mask0_1_56737)">
<path d="M-83.7937 92.0488C-97.1271 92.0488 -108.86 87.7822 -118.994 79.2488C-128.594 70.1822 -133.394 56.0488 -133.394 36.8488C-133.394 17.6488 -128.594 3.51549 -118.994 -5.55119C-108.86 -14.6179 -97.1271 -19.1512 -83.7937 -19.1512H130.606C143.94 -19.1512 155.406 -14.6179 165.006 -5.55119C175.14 2.98215 180.206 16.8488 180.206 36.0488C180.206 55.2488 175.14 69.3822 165.006 78.4488C155.406 87.5155 143.94 92.0488 130.606 92.0488H-83.7937Z" fill="#007E3E"/>
</g>
</svg>
