<svg width="24" height="24" viewBox="0 0 24 24" fill="none" xmlns="http://www.w3.org/2000/svg">
<mask id="mask0_109_27917" style="mask-type:alpha" maskUnits="userSpaceOnUse" x="2" y="0" width="20" height="22">
<path fill-rule="evenodd" clip-rule="evenodd" d="M15.25 0.958313C15.6642 0.958313 16 1.28011 16 1.67706V5.27081C16 5.53545 16.2239 5.74998 16.5 5.74998C16.7455 5.74998 16.9496 5.58047 16.9919 5.35694L17 5.27081V3.83331H20C21.1046 3.83331 22 4.69143 22 5.74998V19.1666C22 20.2252 21.1046 21.0833 20 21.0833H4C2.89543 21.0833 2 20.2252 2 19.1666V17.25H4V18.2083C4 18.6998 4.38604 19.1048 4.88338 19.1602L5 19.1666H19C19.5128 19.1666 19.9355 18.7967 19.9933 18.3201L20 18.2083V8.62498H4V11.5H2V5.74998C2 4.69143 2.89543 3.83331 4 3.83331H7.5V1.67706C7.5 1.28011 7.83579 0.958313 8.25 0.958313C8.66421 0.958313 9 1.28011 9 1.67706V5.27081C9 5.53545 9.22386 5.74998 9.5 5.74998C9.74546 5.74998 9.94961 5.58047 9.99194 5.35694L10 5.27081V3.83331H14.5V1.67706C14.5 1.28011 14.8358 0.958313 15.25 0.958313ZM9.24269 11.0208C9.40417 11.0208 9.5557 11.0955 9.64956 11.2215L11.7924 14.0965C11.9166 14.2631 11.9166 14.4869 11.7924 14.6535L9.64956 17.5285C9.5557 17.6544 9.40417 17.7291 9.24269 17.7291H7.88864C7.77818 17.7291 7.68864 17.6433 7.68864 17.5375C7.68864 17.4975 7.70166 17.4586 7.72589 17.4261L9.285 15.3333H2.5C2.22386 15.3333 2 15.1188 2 14.8541V13.8958C2 13.6312 2.22386 13.4166 2.5 13.4166H9.285L7.72589 11.3239C7.66169 11.2377 7.68251 11.118 7.77239 11.0565C7.80631 11.0333 7.84695 11.0208 7.88864 11.0208H9.24269Z" fill="#6B7388"/>
</mask>
<g mask="url(#mask0_109_27917)">
<path d="M-83.7937 92C-97.1271 92 -108.86 87.7333 -118.994 79.2C-128.594 70.1333 -133.394 56 -133.394 36.8C-133.394 17.6 -128.594 3.46666 -118.994 -5.60002C-108.86 -14.6667 -97.1271 -19.2 -83.7937 -19.2H130.606C143.94 -19.2 155.406 -14.6667 165.006 -5.60002C175.14 2.93332 180.206 16.8 180.206 36C180.206 55.2 175.14 69.3333 165.006 78.4C155.406 87.4667 143.94 92 130.606 92H-83.7937Z" fill="#5E6B82"/>
</g>
</svg>
