<svg width="20" height="20" viewBox="0 0 20 20" fill="none" xmlns="http://www.w3.org/2000/svg">
<mask id="mask0_6179_5385" style="mask-type:alpha" maskUnits="userSpaceOnUse" x="0" y="4" width="20" height="14">
<path fill-rule="evenodd" clip-rule="evenodd" d="M9.5835 17.5C9.37895 17.5 9.20882 17.3526 9.17354 17.1582L9.16683 17.0833V15H2.50016V17.0833C2.50016 17.2879 2.35277 17.458 2.15839 17.4933L2.0835 17.5H1.25016C1.04561 17.5 0.875489 17.3526 0.840209 17.1582L0.833496 17.0833V10.8333C0.833496 10.2165 1.16863 9.67785 1.66677 9.38967L1.66683 5C1.66683 4.53976 2.03993 4.16666 2.50016 4.16666H8.3335C8.79373 4.16666 9.16683 4.53976 9.16683 5L9.16773 9.39015C9.63163 9.65889 9.95398 10.1449 9.99559 10.7089L10.0002 10.8333C10.0002 10.2165 10.3353 9.67785 10.8334 9.38967L10.8335 5C10.8335 4.53976 11.2066 4.16666 11.6668 4.16666H17.5002C17.9604 4.16666 18.3335 4.53976 18.3335 5L18.3344 9.39015C18.7983 9.65889 19.1206 10.1449 19.1623 10.7089L19.1668 10.8333V17.0833C19.1668 17.2879 19.0194 17.458 18.8251 17.4933L18.7502 17.5H17.9168C17.7123 17.5 17.5422 17.3526 17.5069 17.1582L17.5002 17.0833V15H10.8335V17.0833C10.8335 17.2879 10.6861 17.458 10.4917 17.4933L10.4168 17.5H9.5835ZM16.6668 10.8333H11.6668C11.2066 10.8333 10.8335 11.2064 10.8335 11.6667V13.3333H17.5002V11.6667C17.5002 11.2064 17.1271 10.8333 16.6668 10.8333ZM8.3335 10.8333H3.3335C2.87326 10.8333 2.50016 11.2064 2.50016 11.6667V13.3333H9.16683V11.6667C9.16683 11.2064 8.79373 10.8333 8.3335 10.8333ZM15.8335 7.5H13.3335C12.9061 7.5 12.5539 7.8217 12.5058 8.23615L12.5002 8.33333V9.16666H16.6668V8.33333C16.6668 7.87309 16.2937 7.5 15.8335 7.5ZM6.66683 7.5H4.16683C3.73947 7.5 3.38724 7.8217 3.3391 8.23615L3.3335 8.33333V9.16666H7.50016V8.33333C7.50016 7.90597 7.17846 7.55374 6.76401 7.5056L6.66683 7.5Z" fill="#24262C"/>
</mask>
<g mask="url(#mask0_6179_5385)">
<path d="M-85.7937 90C-99.1271 90 -110.86 85.7333 -120.994 77.2C-130.594 68.1333 -135.394 54 -135.394 34.8C-135.394 15.6 -130.594 1.46666 -120.994 -7.60002C-110.86 -16.6667 -99.1271 -21.2 -85.7937 -21.2H128.606C141.94 -21.2 153.406 -16.6667 163.006 -7.60002C173.14 0.933317 178.206 14.8 178.206 34C178.206 53.2 173.14 67.3333 163.006 76.4C153.406 85.4667 141.94 90 128.606 90H-85.7937Z" fill="#252C38"/>
</g>
</svg>
