<svg width="20" height="20" viewBox="0 0 20 20" fill="none" xmlns="http://www.w3.org/2000/svg">
<mask id="mask0_6179_2551" style="mask-type:alpha" maskUnits="userSpaceOnUse" x="0" y="2" width="20" height="17">
<path fill-rule="evenodd" clip-rule="evenodd" d="M17.5 2.5C18.4205 2.5 19.1667 3.24619 19.1667 4.16667L19.1676 10.2235C19.6652 10.5118 20 11.0501 20 11.6667V17.9167C20 18.1468 19.8135 18.3333 19.5833 18.3333H18.75C18.5199 18.3333 18.3333 18.1468 18.3333 17.9167V16.6667H1.66667V17.9167C1.66667 18.1468 1.48012 18.3333 1.25 18.3333H0.416667C0.186548 18.3333 0 18.1468 0 17.9167V11.6667C0 11.0498 0.335138 10.5112 0.833273 10.223L0.833333 4.16667C0.833333 3.24619 1.57953 2.5 2.5 2.5H17.5ZM17.5 11.6667H2.5C2.07264 11.6667 1.72041 11.9884 1.67227 12.4028L1.66667 12.5V14.1667H18.3333V12.5C18.3333 12.0398 17.9602 11.6667 17.5 11.6667ZM15 6.66667H10.8333V10H16.6667V8.33333C16.6667 7.4547 15.9868 6.73486 15.1244 6.67124L15 6.66667ZM9.16667 6.66667H5C4.12137 6.66667 3.40153 7.34657 3.3379 8.20895L3.33333 8.33333V10H9.16667V6.66667Z" fill="#24262C"/>
</mask>
<g mask="url(#mask0_6179_2551)">
<path d="M-85.7937 90C-99.1271 90 -110.86 85.7333 -120.994 77.2C-130.594 68.1333 -135.394 54 -135.394 34.8C-135.394 15.6 -130.594 1.46666 -120.994 -7.60002C-110.86 -16.6667 -99.1271 -21.2 -85.7937 -21.2H128.606C141.94 -21.2 153.406 -16.6667 163.006 -7.60002C173.14 0.933317 178.206 14.8 178.206 34C178.206 53.2 173.14 67.3333 163.006 76.4C153.406 85.4667 141.94 90 128.606 90H-85.7937Z" fill="#252C38"/>
</g>
</svg>
