<svg width="16" height="16" viewBox="0 0 16 16" fill="none" xmlns="http://www.w3.org/2000/svg">
<mask id="mask0_6179_7673" style="mask-type:alpha" maskUnits="userSpaceOnUse" x="1" y="1" width="14" height="14">
<path fill-rule="evenodd" clip-rule="evenodd" d="M8.00016 1.33331C11.6821 1.33331 14.6668 4.31808 14.6668 7.99998C14.6668 11.6819 11.6821 14.6666 8.00016 14.6666C4.31826 14.6666 1.3335 11.6819 1.3335 7.99998C1.3335 4.31808 4.31826 1.33331 8.00016 1.33331ZM12.0002 6.99998H4.00016V10.3333C4.00016 10.497 4.11808 10.6331 4.27358 10.6613L4.3335 10.6666H11.6668C11.8305 10.6666 11.9666 10.5487 11.9948 10.3932L12.0002 10.3333V6.99998ZM7.66683 8.66665C7.85092 8.66665 8.00016 8.81588 8.00016 8.99998C8.00016 9.16362 7.88225 9.29972 7.72675 9.32794L7.66683 9.33331H5.00016L4.94025 9.32794C4.78475 9.29972 4.66683 9.16362 4.66683 8.99998C4.66683 8.83634 4.78475 8.70024 4.94025 8.67202L5.00016 8.66665H7.66683ZM11.6668 5.33331H4.3335C4.16986 5.33331 4.03376 5.45123 4.00553 5.60673L4.00016 5.66665V5.99998H12.0002V5.66665C12.0002 5.50301 11.8822 5.36691 11.7267 5.33868L11.6668 5.33331Z" fill="#2067DA"/>
</mask>
<g mask="url(#mask0_6179_7673)">
<path d="M-87.7937 88C-101.127 88 -112.86 83.7333 -122.994 75.2C-132.594 66.1333 -137.394 52 -137.394 32.8C-137.394 13.6 -132.594 -0.53334 -122.994 -9.60002C-112.86 -18.6667 -101.127 -23.2 -87.7937 -23.2H126.606C139.94 -23.2 151.406 -18.6667 161.006 -9.60002C171.14 -1.06668 176.206 12.8 176.206 32C176.206 51.2 171.14 65.3333 161.006 74.4C151.406 83.4667 139.94 88 126.606 88H-87.7937Z" fill="#252C38"/>
</g>
</svg>
