<svg width="20" height="20" viewBox="0 0 20 20" fill="none" xmlns="http://www.w3.org/2000/svg">
<mask id="mask0_6179_6798" style="mask-type:alpha" maskUnits="userSpaceOnUse" x="2" y="1" width="17" height="18">
<path fill-rule="evenodd" clip-rule="evenodd" d="M8.58359 4.77541C8.70763 4.4533 9.06932 4.29273 9.39144 4.41677C10.627 4.89259 11.4585 6.12973 11.4585 7.52443C11.4585 7.80041 11.4261 8.07193 11.3632 8.33414L15 8.33335V9.16652L15.2083 9.16669C16.9342 9.16669 18.3333 10.5658 18.3333 12.2917C18.3333 13.9619 17.023 15.3261 15.3743 15.4124L15.2083 15.4167L14.4798 15.4169C13.943 16.6456 13.0225 17.6683 11.8698 18.3336H5.63024C3.75922 17.2537 2.5 15.2322 2.5 12.9167V8.33335L10.0557 8.33363C10.1559 8.08101 10.2085 7.80736 10.2085 7.52443C10.2085 6.64193 9.69069 5.8715 8.94223 5.58327C8.62011 5.45922 8.45954 5.09753 8.58359 4.77541ZM15.2083 10.4167L15 10.4165V12.9167C15 13.3449 14.9569 13.7631 14.8749 14.1672L15.2083 14.1667C16.2439 14.1667 17.0833 13.3272 17.0833 12.2917C17.0833 11.2993 16.3124 10.487 15.3367 10.421L15.2083 10.4167ZM8.08325 1.44208C8.20729 1.7642 8.04672 2.12589 7.72461 2.24993C6.97615 2.53816 6.45833 3.3086 6.45833 4.19109C6.45833 4.98374 6.87617 5.68769 7.50949 6.03199L7.63896 6.09597C7.95416 6.23668 8.09561 6.60627 7.9549 6.92146C7.81419 7.23666 7.4446 7.37811 7.12941 7.2374C5.97053 6.72006 5.20833 5.52634 5.20833 4.19109C5.20833 2.79639 6.03982 1.55926 7.27539 1.08344C7.59751 0.959394 7.9592 1.11996 8.08325 1.44208Z" fill="#24262C"/>
</mask>
<g mask="url(#mask0_6179_6798)">
<path d="M-85.7937 90C-99.1271 90 -110.86 85.7333 -120.994 77.2C-130.594 68.1333 -135.394 54 -135.394 34.8C-135.394 15.6 -130.594 1.46666 -120.994 -7.60002C-110.86 -16.6667 -99.1271 -21.2 -85.7937 -21.2H128.606C141.94 -21.2 153.406 -16.6667 163.006 -7.60002C173.14 0.933317 178.206 14.8 178.206 34C178.206 53.2 173.14 67.3333 163.006 76.4C153.406 85.4667 141.94 90 128.606 90H-85.7937Z" fill="#252C38"/>
</g>
</svg>
