<svg width="20" height="20" viewBox="0 0 20 20" fill="none" xmlns="http://www.w3.org/2000/svg">
<mask id="mask0_6179_7978" style="mask-type:alpha" maskUnits="userSpaceOnUse" x="3" y="0" width="14" height="19">
<path fill-rule="evenodd" clip-rule="evenodd" d="M13.333 8.33334V5.83334C13.333 3.99239 11.8406 2.50001 9.99967 2.50001C8.15873 2.50001 6.66634 3.99239 6.66634 5.83334V8.33334H4.99967V5.83334C4.99967 3.07192 7.23825 0.833344 9.99967 0.833344C12.7611 0.833344 14.9997 3.07192 14.9997 5.83334V8.33334C15.9201 8.33334 16.6663 9.07954 16.6663 10V16.6667C16.6663 17.5872 15.9201 18.3333 14.9997 18.3333H4.99967C4.0792 18.3333 3.33301 17.5872 3.33301 16.6667V10C3.33301 9.07954 4.0792 8.33334 4.99967 8.33334H13.333ZM9.99967 11.6667C9.0792 11.6667 8.33301 12.4129 8.33301 13.3333C8.33301 14.2538 9.0792 15 9.99967 15C10.9201 15 11.6663 14.2538 11.6663 13.3333C11.6663 12.4129 10.9201 11.6667 9.99967 11.6667Z" fill="white"/>
</mask>
<g mask="url(#mask0_6179_7978)">
<path d="M-85.7937 90.0488C-99.1271 90.0488 -110.86 85.7822 -120.994 77.2488C-130.594 68.1822 -135.394 54.0488 -135.394 34.8488C-135.394 15.6488 -130.594 1.51549 -120.994 -7.55119C-110.86 -16.6179 -99.1271 -21.1512 -85.7937 -21.1512H128.606C141.94 -21.1512 153.406 -16.6179 163.006 -7.55119C173.14 0.982145 178.206 14.8488 178.206 34.0488C178.206 53.2488 173.14 67.3822 163.006 76.4488C153.406 85.5155 141.94 90.0488 128.606 90.0488H-85.7937Z" fill="white"/>
</g>
</svg>
