<svg width="16" height="16" viewBox="0 0 16 16" fill="none" xmlns="http://www.w3.org/2000/svg">
<path fill-rule="evenodd" clip-rule="evenodd" d="M1.33301 3.00086C1.33301 2.91414 1.34974 2.82809 1.3832 2.74804C1.51309 2.43152 1.85938 2.268 2.18201 2.35787L2.25594 2.38316L14.584 7.40947C14.7459 7.47618 14.8751 7.60225 14.9447 7.76301C15.0808 8.07706 14.9555 8.43769 14.6652 8.60457L14.5953 8.63953L2.26731 13.9453C2.18365 13.9814 2.09397 14 2.00228 14C1.65923 14 1.3762 13.7424 1.33751 13.4107L1.33301 13.333V9.33337L7.71579 8.37596C7.85856 8.35454 7.96883 8.24455 7.99417 8.10684L7.99967 8.04631V7.95377C7.99967 7.8094 7.90725 7.68403 7.77484 7.63855L7.71579 7.62412L1.33301 6.66671V3.00086Z" fill="#2067DA"/>
</svg>
