<svg width="24" height="24" viewBox="0 0 24 24" fill="none" xmlns="http://www.w3.org/2000/svg">
<mask id="mask0_6179_4858" style="mask-type:alpha" maskUnits="userSpaceOnUse" x="3" y="2" width="18" height="20">
<path fill-rule="evenodd" clip-rule="evenodd" d="M12.2015 2.18L11.9995 2C11.9995 2 8.80548 5.079 3.00748 5.779C3.00748 5.779 2.40548 18.141 11.9995 22C20.7405 18.484 21.0185 7.91 20.9985 6.058L20.9925 5.779C16.0395 5.181 12.9865 2.848 12.2015 2.18ZM14.999 9C14.999 7.343 13.656 6 11.999 6C10.401 6 9.09502 7.249 9.00402 8.824L8.99902 9V10H8.49902C8.25402 10 8.05002 10.177 8.00702 10.41L7.99902 10.5V15.5C7.99902 15.746 8.17602 15.95 8.40902 15.992L8.49902 16H15.499C15.745 16 15.949 15.823 15.991 15.59L15.999 15.5V10.5C15.999 10.254 15.822 10.05 15.589 10.008L15.499 10H14.999V9ZM11.999 12C11.447 12 10.999 12.448 10.999 13C10.999 13.552 11.447 14 11.999 14C12.551 14 12.999 13.552 12.999 13C12.999 12.448 12.551 12 11.999 12ZM13.994 8.851C13.917 7.816 13.053 7 11.999 7C10.895 7 9.99902 7.896 9.99902 9V10H13.999V9L13.994 8.851Z" fill="#1C40C7"/>
</mask>
<g mask="url(#mask0_6179_4858)">
<path d="M-83.7937 92.0488C-97.1271 92.0488 -108.86 87.7822 -118.994 79.2488C-128.594 70.1822 -133.394 56.0488 -133.394 36.8488C-133.394 17.6488 -128.594 3.51549 -118.994 -5.55119C-108.86 -14.6179 -97.1271 -19.1512 -83.7937 -19.1512H130.606C143.94 -19.1512 155.406 -14.6179 165.006 -5.55119C175.14 2.98215 180.206 16.8488 180.206 36.0488C180.206 55.2488 175.14 69.3822 165.006 78.4488C155.406 87.5155 143.94 92.0488 130.606 92.0488H-83.7937Z" fill="#252C38"/>
</g>
</svg>
