<svg width="16" height="16" viewBox="0 0 16 16" fill="none" xmlns="http://www.w3.org/2000/svg">
<mask id="mask0_6179_7562" style="mask-type:alpha" maskUnits="userSpaceOnUse" x="0" y="4" width="16" height="9">
<path fill-rule="evenodd" clip-rule="evenodd" d="M1.07757 5.07745C1.38131 4.77371 1.8612 4.75346 2.18842 5.0167L2.25609 5.07745L8.00016 10.822L13.7442 5.07745C14.048 4.77371 14.5279 4.75346 14.8551 5.0167L14.9228 5.07745C15.2265 5.38119 15.2467 5.86107 14.9835 6.1883L14.9228 6.25596L8.58942 12.5893C8.28568 12.893 7.8058 12.9133 7.47857 12.65L7.41091 12.5893L1.07757 6.25596C0.752137 5.93053 0.752137 5.40289 1.07757 5.07745Z" fill="#3170E7"/>
</mask>
<g mask="url(#mask0_6179_7562)">
<path d="M-87.7937 88C-101.127 88 -112.86 83.7333 -122.994 75.2C-132.594 66.1333 -137.394 52 -137.394 32.8C-137.394 13.6 -132.594 -0.53334 -122.994 -9.60002C-112.86 -18.6667 -101.127 -23.2 -87.7937 -23.2H126.606C139.94 -23.2 151.406 -18.6667 161.006 -9.60002C171.14 -1.06668 176.206 12.8 176.206 32C176.206 51.2 171.14 65.3333 161.006 74.4C151.406 83.4667 139.94 88 126.606 88H-87.7937Z" fill="#0053C2"/>
</g>
</svg>
