<svg width="20" height="20" viewBox="0 0 20 20" fill="none" xmlns="http://www.w3.org/2000/svg">
<mask id="mask0_6179_7481" style="mask-type:alpha" maskUnits="userSpaceOnUse" x="1" y="1" width="18" height="16">
<path fill-rule="evenodd" clip-rule="evenodd" d="M5.83159 7.91667V15.8333H3.33317C2.4127 15.8333 1.6665 15.0871 1.6665 14.1667V9.58334C1.6665 8.66286 2.4127 7.91667 3.33317 7.91667H5.83159ZM10.2459 1.66667C10.8106 1.66667 11.2751 2.08738 11.3309 2.62659L11.3366 2.73592V6.96117H16.9486C17.6519 6.89521 18.2653 7.40538 18.3279 8.08095L18.3332 8.195V9.79876C18.3332 11.4142 18.0187 13.0149 17.4067 14.5148C16.9004 15.7557 15.6892 16.7252 14.3487 16.6639L14.1872 16.6516L6.6665 15.8509V7.8662L6.9436 7.42438C7.49359 6.52193 8.71094 4.39096 9.18602 2.48429C9.30557 2.0047 9.7423 1.66667 10.2459 1.66667Z" fill="#24262C"/>
</mask>
<g mask="url(#mask0_6179_7481)">
<path d="M-85.7937 90C-99.1271 90 -110.86 85.7333 -120.994 77.2C-130.594 68.1333 -135.394 54 -135.394 34.8C-135.394 15.6 -130.594 1.46666 -120.994 -7.60002C-110.86 -16.6667 -99.1271 -21.2 -85.7937 -21.2H128.606C141.94 -21.2 153.406 -16.6667 163.006 -7.60002C173.14 0.933317 178.206 14.8 178.206 34C178.206 53.2 173.14 67.3333 163.006 76.4C153.406 85.4667 141.94 90 128.606 90H-85.7937Z" fill="#252C38"/>
</g>
</svg>
