<svg width="14" height="14" viewBox="0 0 14 14" fill="none" xmlns="http://www.w3.org/2000/svg">
<mask id="mask0_6179_4365" style="mask-type:alpha" maskUnits="userSpaceOnUse" x="0" y="2" width="14" height="10">
<path fill-rule="evenodd" clip-rule="evenodd" d="M12.5143 2.61746L13.1526 3.21591C13.2701 3.32608 13.2761 3.51066 13.1659 3.62818L6.07371 11.1932C5.81077 11.4736 5.37985 11.499 5.08675 11.2643L5.02616 11.2101L0.8574 7.0413C0.743497 6.9274 0.743497 6.74273 0.8574 6.62882L1.47612 6.01011C1.57736 5.90885 1.73452 5.8976 1.8482 5.97635L1.88859 6.01011L5.52484 9.6466L12.102 2.63076C12.1999 2.5263 12.3566 2.50999 12.4728 2.58503L12.5143 2.61746Z" fill="#112A81"/>
</mask>
<g mask="url(#mask0_6179_4365)">
<path d="M-88.7937 87C-102.127 87 -113.86 82.7333 -123.994 74.2C-133.594 65.1333 -138.394 51 -138.394 31.8C-138.394 12.6 -133.594 -1.53334 -123.994 -10.6C-113.86 -19.6667 -102.127 -24.2 -88.7937 -24.2H125.606C138.94 -24.2 150.406 -19.6667 160.006 -10.6C170.14 -2.06668 175.206 11.8 175.206 31C175.206 50.2 170.14 64.3333 160.006 73.4C150.406 82.4667 138.94 87 125.606 87H-88.7937Z" fill="#252C38"/>
</g>
</svg>
