<svg width="24" height="24" viewBox="0 0 24 24" fill="none" xmlns="http://www.w3.org/2000/svg">
<mask id="mask0_6179_8217" style="mask-type:alpha" maskUnits="userSpaceOnUse" x="2" y="1" width="20" height="21">
<path fill-rule="evenodd" clip-rule="evenodd" d="M15.25 1C15.6642 1 16 1.33579 16 1.75V5.5C16 5.77614 16.2239 6 16.5 6C16.7455 6 16.9496 5.82312 16.9919 5.58988L17 5.5V4H20C21.1046 4 22 4.89543 22 6V20C22 21.1046 21.1046 22 20 22H4C2.89543 22 2 21.1046 2 20V6C2 4.89543 2.89543 4 4 4H7.5V1.75C7.5 1.33579 7.83579 1 8.25 1C8.66421 1 9 1.33579 9 1.75V5.5C9 5.77614 9.22386 6 9.5 6C9.74546 6 9.94961 5.82312 9.99194 5.58988L10 5.5V4H14.5V1.75C14.5 1.33579 14.8358 1 15.25 1ZM20 9H4V19C4 19.5128 4.38604 19.9355 4.88338 19.9933L5 20H19C19.5128 20 19.9355 19.614 19.9933 19.1166L20 19V9ZM15.8664 11L17.2929 12.3736L11.7453 17.7155C11.3817 18.0656 10.8096 18.0926 10.4139 17.7963L10.3189 17.7155L7.29289 14.8017L8.71934 13.4282L11.0321 15.6544L15.8664 11Z" fill="#24262C"/>
</mask>
<g mask="url(#mask0_6179_8217)">
<path d="M-83.7937 92C-97.1271 92 -108.86 87.7333 -118.994 79.2C-128.594 70.1333 -133.394 56 -133.394 36.8C-133.394 17.6 -128.594 3.46666 -118.994 -5.60002C-108.86 -14.6667 -97.1271 -19.2 -83.7937 -19.2H130.606C143.94 -19.2 155.406 -14.6667 165.006 -5.60002C175.14 2.93332 180.206 16.8 180.206 36C180.206 55.2 175.14 69.3333 165.006 78.4C155.406 87.4667 143.94 92 130.606 92H-83.7937Z" fill="#252C38"/>
</g>
</svg>
