<svg width="20" height="20" viewBox="0 0 20 20" fill="none" xmlns="http://www.w3.org/2000/svg">
<mask id="mask0_6179_2614" style="mask-type:alpha" maskUnits="userSpaceOnUse" x="0" y="0" width="20" height="20">
<path fill-rule="evenodd" clip-rule="evenodd" d="M3.35414 2.49992H1.67371C1.20967 2.49992 0.833496 2.12682 0.833496 1.66659C0.833496 1.20635 1.20967 0.833252 1.67371 0.833252H3.36247C4.21874 0.833252 4.93807 1.47181 5.03263 2.31586L5.1466 3.33325H18.3264C18.8456 3.33325 19.2405 3.79564 19.1552 4.30358L17.7548 12.6369C17.6873 13.0387 17.3368 13.3333 16.926 13.3333H6.26689L6.54696 15.8333H17.6378C18.1019 15.8333 18.478 16.2063 18.478 16.6666C18.478 17.1268 18.1019 17.4999 17.6378 17.4999H15.9574V18.3333C15.9574 18.7935 15.5812 19.1666 15.1172 19.1666H14.277C13.8129 19.1666 13.4367 18.7935 13.4367 18.3333V17.4999H9.23565V18.3333C9.23565 18.7935 8.85948 19.1666 8.39544 19.1666H7.55522C7.09119 19.1666 6.71501 18.7935 6.71501 18.3333V17.4999H6.53863C5.68237 17.4999 4.96304 16.8614 4.86848 16.0173L3.35414 2.49992ZM5.36475 4.99656H17.3297L16.134 11.6214H6.08215L5.36475 4.99656Z" fill="#24262C"/>
</mask>
<g mask="url(#mask0_6179_2614)">
<path d="M-85.7937 90C-99.1271 90 -110.86 85.7333 -120.994 77.2C-130.594 68.1333 -135.394 54 -135.394 34.8C-135.394 15.6 -130.594 1.46666 -120.994 -7.60002C-110.86 -16.6667 -99.1271 -21.2 -85.7937 -21.2H128.606C141.94 -21.2 153.406 -16.6667 163.006 -7.60002C173.14 0.933317 178.206 14.8 178.206 34C178.206 53.2 173.14 67.3333 163.006 76.4C153.406 85.4667 141.94 90 128.606 90H-85.7937Z" fill="#252C38"/>
</g>
</svg>
