<svg width="20" height="20" viewBox="0 0 20 20" fill="none" xmlns="http://www.w3.org/2000/svg">
<mask id="mask0_6179_5510" style="mask-type:alpha" maskUnits="userSpaceOnUse" x="1" y="0" width="18" height="19">
<path fill-rule="evenodd" clip-rule="evenodd" d="M4.99984 10V18.3333H1.6665V10.8333C1.6665 10.3731 2.0396 10 2.49984 10H4.99984ZM17.4998 8.33333C17.9601 8.33333 18.3332 8.70642 18.3332 9.16666V18.3333H14.9998V8.33333H17.4998ZM10.4165 0.833328C10.6466 0.833328 10.8332 1.01988 10.8332 1.24999V3.33333H11.6665C12.1267 3.33333 12.4998 3.70642 12.4998 4.16666V5.83333H13.3332C13.7934 5.83333 14.1665 6.20642 14.1665 6.66666V18.3333H5.83317V6.66666C5.83317 6.20642 6.20627 5.83333 6.6665 5.83333H7.49984V4.16666C7.49984 3.70642 7.87293 3.33333 8.33317 3.33333H9.1665V1.24999C9.1665 1.01988 9.35305 0.833328 9.58317 0.833328H10.4165ZM12.0832 15.8333H7.9165C7.68639 15.8333 7.49984 16.0199 7.49984 16.25C7.49984 16.4545 7.64723 16.6247 7.84161 16.6599L7.9165 16.6667H12.0832C12.3133 16.6667 12.4998 16.4801 12.4998 16.25C12.4998 16.0454 12.3524 15.8753 12.1581 15.84L12.0832 15.8333ZM12.0832 13.3333H7.9165C7.68639 13.3333 7.49984 13.5199 7.49984 13.75C7.49984 13.9545 7.64723 14.1247 7.84161 14.1599L7.9165 14.1667H12.0832C12.3133 14.1667 12.4998 13.9801 12.4998 13.75C12.4998 13.5454 12.3524 13.3753 12.1581 13.34L12.0832 13.3333ZM12.0832 10.8333H7.9165C7.68639 10.8333 7.49984 11.0199 7.49984 11.25C7.49984 11.4545 7.64723 11.6247 7.84161 11.6599L7.9165 11.6667H12.0832C12.3133 11.6667 12.4998 11.4801 12.4998 11.25C12.4998 11.0454 12.3524 10.8753 12.1581 10.84L12.0832 10.8333ZM12.0832 8.33333H7.9165C7.68639 8.33333 7.49984 8.51988 7.49984 8.74999C7.49984 8.95454 7.64723 9.12467 7.84161 9.15995L7.9165 9.16666H12.0832C12.3133 9.16666 12.4998 8.98011 12.4998 8.74999C12.4998 8.54545 12.3524 8.37532 12.1581 8.34004L12.0832 8.33333Z" fill="#24262C"/>
</mask>
<g mask="url(#mask0_6179_5510)">
<path d="M-85.7937 90C-99.1271 90 -110.86 85.7333 -120.994 77.2C-130.594 68.1333 -135.394 54 -135.394 34.8C-135.394 15.6 -130.594 1.46666 -120.994 -7.60002C-110.86 -16.6667 -99.1271 -21.2 -85.7937 -21.2H128.606C141.94 -21.2 153.406 -16.6667 163.006 -7.60002C173.14 0.933317 178.206 14.8 178.206 34C178.206 53.2 173.14 67.3333 163.006 76.4C153.406 85.4667 141.94 90 128.606 90H-85.7937Z" fill="#252C38"/>
</g>
</svg>
