<svg width="16" height="16" viewBox="0 0 16 16" fill="none" xmlns="http://www.w3.org/2000/svg">
<mask id="mask0_1_55992" style="mask-type:alpha" maskUnits="userSpaceOnUse" x="1" y="0" width="14" height="16">
<path fill-rule="evenodd" clip-rule="evenodd" d="M5.3335 11.3333C6.20433 11.3333 6.94517 11.8899 7.21971 12.6667L14.0002 12.6667C14.3684 12.6667 14.6668 12.9651 14.6668 13.3333C14.6668 13.7015 14.3684 14 14.0002 14L7.21948 14.0006C6.94475 14.7771 6.20408 15.3333 5.3335 15.3333C4.46291 15.3333 3.72224 14.7771 3.44751 14.0006L2.00016 14C1.63197 14 1.3335 13.7015 1.3335 13.3333C1.3335 12.9651 1.63197 12.6667 2.00016 12.6667L3.44728 12.6667C3.72182 11.8899 4.46266 11.3333 5.3335 11.3333ZM10.6668 6.00001C11.5377 6.00001 12.2785 6.55657 12.553 7.3334L14.0002 7.33334C14.3684 7.33334 14.6668 7.63182 14.6668 8.00001C14.6668 8.3682 14.3684 8.66667 14.0002 8.66667L12.5528 8.66727C12.2781 9.44375 11.5374 10 10.6668 10C9.79624 10 9.05557 9.44375 8.78085 8.66727L2.00016 8.66667C1.63197 8.66667 1.3335 8.3682 1.3335 8.00001C1.3335 7.63182 1.63197 7.33334 2.00016 7.33334L8.78061 7.3334C9.05515 6.55657 9.79599 6.00001 10.6668 6.00001ZM5.3335 0.666672C6.20433 0.666672 6.94517 1.22324 7.21971 2.00006L14.0002 2.00001C14.3684 2.00001 14.6668 2.29848 14.6668 2.66667C14.6668 3.03486 14.3684 3.33334 14.0002 3.33334L7.21948 3.33394C6.94475 4.11042 6.20408 4.66667 5.3335 4.66667C4.46291 4.66667 3.72224 4.11042 3.44751 3.33394L2.00016 3.33334C1.63197 3.33334 1.3335 3.03486 1.3335 2.66667C1.3335 2.29848 1.63197 2.00001 2.00016 2.00001L3.44728 2.00006C3.72182 1.22324 4.46266 0.666672 5.3335 0.666672Z" fill="#24262C"/>
</mask>
<g mask="url(#mask0_1_55992)">
<path d="M-87.7937 88C-101.127 88 -112.86 83.7333 -122.994 75.2C-132.594 66.1333 -137.394 52 -137.394 32.8C-137.394 13.6 -132.594 -0.53334 -122.994 -9.60002C-112.86 -18.6667 -101.127 -23.2 -87.7937 -23.2H126.606C139.94 -23.2 151.406 -18.6667 161.006 -9.60002C171.14 -1.06668 176.206 12.8 176.206 32C176.206 51.2 171.14 65.3333 161.006 74.4C151.406 83.4667 139.94 88 126.606 88H-87.7937Z" fill="#252C38"/>
</g>
</svg>
