<svg width="20" height="20" viewBox="0 0 20 20" fill="none" xmlns="http://www.w3.org/2000/svg">
<mask id="mask0_6179_7463" style="mask-type:alpha" maskUnits="userSpaceOnUse" x="1" y="1" width="18" height="18">
<path fill-rule="evenodd" clip-rule="evenodd" d="M8.33317 7.50001V13.3333H15.8332V7.50001H16.6665C17.5451 7.50001 18.265 8.1799 18.3286 9.04229L18.3332 9.16667V17.9167C18.3332 18.1468 18.1466 18.3333 17.9165 18.3333C17.6864 18.3333 17.4998 18.1468 17.4998 17.9167V16.6667H6.6665V17.9167C6.6665 18.1468 6.47996 18.3333 6.24984 18.3333C6.01972 18.3333 5.83317 18.1468 5.83317 17.9167V9.16667C5.83317 8.28804 6.51307 7.5682 7.37545 7.50458L7.49984 7.50001H8.33317ZM4.1665 6.66667V17.9167C4.1665 18.1468 3.97996 18.3333 3.74984 18.3333C3.51972 18.3333 3.33317 18.1468 3.33317 17.9167V6.66667H4.1665ZM13.3332 5.00001C14.2536 5.00001 14.9998 5.7462 14.9998 6.66667V12.5H9.1665V6.66667C9.1665 5.7462 9.9127 5.00001 10.8332 5.00001H13.3332ZM4.66235 1.66667C5.09047 1.66667 5.44895 1.99108 5.49155 2.41709L5.83317 5.83334H1.6665L2.00813 2.41709C2.05073 1.99108 2.4092 1.66667 2.83733 1.66667H4.66235Z" fill="#24262C"/>
</mask>
<g mask="url(#mask0_6179_7463)">
<path d="M-85.7937 90C-99.1271 90 -110.86 85.7333 -120.994 77.2C-130.594 68.1333 -135.394 54 -135.394 34.8C-135.394 15.6 -130.594 1.46666 -120.994 -7.60002C-110.86 -16.6667 -99.1271 -21.2 -85.7937 -21.2H128.606C141.94 -21.2 153.406 -16.6667 163.006 -7.60002C173.14 0.933317 178.206 14.8 178.206 34C178.206 53.2 173.14 67.3333 163.006 76.4C153.406 85.4667 141.94 90 128.606 90H-85.7937Z" fill="#252C38"/>
</g>
</svg>
