<svg width="14" height="14" viewBox="0 0 14 14" fill="none" xmlns="http://www.w3.org/2000/svg">
<mask id="mask0_6179_1055" style="mask-type:alpha" maskUnits="userSpaceOnUse" x="1" y="1" width="12" height="12">
<path fill-rule="evenodd" clip-rule="evenodd" d="M12.2498 11.0833L12.8332 12.8333H1.1665L1.74984 11.0833H12.2498ZM12.2498 5.24999V5.83332C12.2498 6.13085 12.0271 6.37635 11.7393 6.41216L12.2498 10.5H9.9165L10.4277 6.41224C10.1396 6.37668 9.9165 6.13105 9.9165 5.83332V5.24999H12.2498ZM8.1665 5.24999V5.83332C8.1665 6.13085 7.94376 6.37635 7.65593 6.41216L8.1665 10.5H5.83317L6.34433 6.41224C6.05622 6.37668 5.83317 6.13105 5.83317 5.83332V5.24999H8.1665ZM4.08317 5.24999V5.83332C4.08317 6.13085 3.86043 6.37635 3.5726 6.41216L4.08317 10.5H1.74984L2.261 6.41224C1.97289 6.37668 1.74984 6.13105 1.74984 5.83332V5.24999H4.08317ZM6.99984 1.16666L12.8332 3.49999V4.66666H1.1665V3.49999L6.99984 1.16666ZM6.99984 2.33332C6.51659 2.33332 6.12484 2.72507 6.12484 3.20832C6.12484 3.69157 6.51659 4.08332 6.99984 4.08332C7.48309 4.08332 7.87484 3.69157 7.87484 3.20832C7.87484 2.72507 7.48309 2.33332 6.99984 2.33332Z" fill="#24262C"/>
</mask>
<g mask="url(#mask0_6179_1055)">
<path d="M-88.7937 87C-102.127 87 -113.86 82.7333 -123.994 74.2C-133.594 65.1333 -138.394 51 -138.394 31.8C-138.394 12.6 -133.594 -1.53334 -123.994 -10.6C-113.86 -19.6667 -102.127 -24.2 -88.7937 -24.2H125.606C138.94 -24.2 150.406 -19.6667 160.006 -10.6C170.14 -2.06668 175.206 11.8 175.206 31C175.206 50.2 170.14 64.3333 160.006 73.4C150.406 82.4667 138.94 87 125.606 87H-88.7937Z" fill="#252C38"/>
</g>
</svg>
