<svg width="20" height="20" viewBox="0 0 20 20" fill="none" xmlns="http://www.w3.org/2000/svg">
<mask id="mask0_6179_7573" style="mask-type:alpha" maskUnits="userSpaceOnUse" x="2" y="1" width="15" height="18">
<path fill-rule="evenodd" clip-rule="evenodd" d="M6.66683 8.40244L6.66687 10.105C5.22908 10.4749 4.16667 11.7801 4.16667 13.3333C4.16667 15.1743 5.65905 16.6667 7.5 16.6667C8.73342 16.6667 9.81038 15.9968 10.3869 15.0009L12.2154 15.0003C11.5289 16.9421 9.67692 18.3333 7.5 18.3333C4.73858 18.3333 2.5 16.0948 2.5 13.3333C2.5 10.8558 4.30199 8.79911 6.66683 8.40244ZM10 5.83334C11.3807 5.83334 12.5 6.95263 12.5 8.33334V11.25H11.25C11.0455 11.25 10.8753 11.3974 10.84 11.5918L10.8333 11.6667C10.8333 11.8712 10.9807 12.0413 11.1751 12.0766L11.25 12.0833H13.1365C13.7668 12.0833 14.3432 12.4389 14.626 13.0023L16.3686 16.4736C16.6217 16.9778 16.4261 17.5919 15.928 17.8569C15.4426 18.115 14.8399 17.9309 14.5817 17.4455L12.9167 14.1667H8.33333C7.8731 14.1667 7.5 13.7936 7.5 13.3333V8.33334C7.5 6.95263 8.61929 5.83334 10 5.83334ZM10 1.66667C10.9205 1.66667 11.6667 2.41286 11.6667 3.33334C11.6667 4.25381 10.9205 5.00001 10 5.00001C9.07953 5.00001 8.33333 4.25381 8.33333 3.33334C8.33333 2.41286 9.07953 1.66667 10 1.66667Z" fill="#24262C"/>
</mask>
<g mask="url(#mask0_6179_7573)">
<path d="M-85.7937 90C-99.1271 90 -110.86 85.7333 -120.994 77.2C-130.594 68.1333 -135.394 54 -135.394 34.8C-135.394 15.6 -130.594 1.46666 -120.994 -7.60002C-110.86 -16.6667 -99.1271 -21.2 -85.7937 -21.2H128.606C141.94 -21.2 153.406 -16.6667 163.006 -7.60002C173.14 0.933317 178.206 14.8 178.206 34C178.206 53.2 173.14 67.3333 163.006 76.4C153.406 85.4667 141.94 90 128.606 90H-85.7937Z" fill="#252C38"/>
</g>
</svg>
