<svg width="20" height="20" viewBox="0 0 20 20" fill="none" xmlns="http://www.w3.org/2000/svg">
<mask id="mask0_6179_7763" style="mask-type:alpha" maskUnits="userSpaceOnUse" x="0" y="3" width="20" height="14">
<path fill-rule="evenodd" clip-rule="evenodd" d="M9.96464 14.1667C10.6661 14.1667 11.2349 14.7354 11.2349 15.4369C11.2349 16.1384 10.6661 16.7071 9.96464 16.7071C9.26313 16.7071 8.6944 16.1384 8.6944 15.4369C8.6944 14.7354 9.26313 14.1667 9.96464 14.1667ZM9.96685 10.4569C11.3462 10.4569 12.6106 10.9483 13.595 11.7654C14.0678 12.1579 14.0694 12.8829 13.5981 13.2771C13.231 13.584 12.7003 13.5773 12.3315 13.2724C11.6883 12.741 10.8644 12.4212 9.96685 12.4212C9.0693 12.4212 8.24535 12.741 7.60224 13.2724C7.23335 13.5773 6.7026 13.584 6.33561 13.2771C5.86431 12.8829 5.86595 12.1579 6.33868 11.7654C7.32305 10.9483 8.58753 10.4569 9.96685 10.4569ZM9.96686 6.91874C12.4141 6.91874 14.6335 7.89296 16.2594 9.4744C16.64 9.84462 16.644 10.4462 16.2871 10.8205L16.1878 10.9115C15.8113 11.2244 15.2633 11.1983 14.9088 10.8607C13.6234 9.63652 11.8773 8.88237 9.96464 8.88237C8.04782 8.88237 6.30543 9.63528 5.02118 10.8629C4.69445 11.1752 4.20207 11.2212 3.83286 10.9795L3.74329 10.913L3.72155 10.8948C3.28751 10.5319 3.26433 9.87374 3.66956 9.47899C5.29579 7.89479 7.5172 6.91874 9.96686 6.91874ZM9.96688 3.39885C13.4513 3.39885 16.5984 4.84214 18.8438 7.16327C19.2037 7.53538 19.1968 8.12035 18.8483 8.48602L18.7684 8.56086L18.729 8.5938C18.3463 8.91384 17.7798 8.88798 17.433 8.52937L17.3106 8.40503V8.40503C15.349 6.44343 12.741 5.36314 9.96688 5.36314C7.2918 5.36314 4.77118 6.36764 2.8357 8.19824L2.51746 8.51215V8.51215C2.16029 8.87966 1.57938 8.90716 1.18626 8.57841C0.749341 8.21305 0.712151 7.55207 1.109 7.14356C3.35307 4.83402 6.49219 3.39885 9.96688 3.39885Z" fill="#24262C"/>
</mask>
<g mask="url(#mask0_6179_7763)">
<path d="M-85.7937 90C-99.1271 90 -110.86 85.7333 -120.994 77.2C-130.594 68.1333 -135.394 54 -135.394 34.8C-135.394 15.6 -130.594 1.46666 -120.994 -7.60002C-110.86 -16.6667 -99.1271 -21.2 -85.7937 -21.2H128.606C141.94 -21.2 153.406 -16.6667 163.006 -7.60002C173.14 0.933317 178.206 14.8 178.206 34C178.206 53.2 173.14 67.3333 163.006 76.4C153.406 85.4667 141.94 90 128.606 90H-85.7937Z" fill="#252C38"/>
</g>
</svg>
