<svg width="24" height="24" viewBox="0 0 24 24" fill="none" xmlns="http://www.w3.org/2000/svg">
<mask id="mask0_109_27952" style="mask-type:alpha" maskUnits="userSpaceOnUse" x="4" y="5" width="16" height="14">
<path fill-rule="evenodd" clip-rule="evenodd" d="M14.9999 13.3333C17.3931 13.3333 19.3332 15.2734 19.3332 17.6666V18.6666H15.3331L15.3332 16.6666C15.3332 15.4536 14.9732 14.3246 14.3542 13.3807C14.5646 13.3496 14.7803 13.3333 14.9999 13.3333ZM9.33341 12C11.9107 12 14.0001 14.0893 14.0001 16.6666V18.6666H4.66675V16.6666C4.66675 14.0893 6.75609 12 9.33341 12ZM15.0001 7.33331C16.2887 7.33331 17.3334 8.37798 17.3334 9.66665C17.3334 10.9553 16.2887 12 15.0001 12C13.7114 12 12.6667 10.9553 12.6667 9.66665C12.6667 8.37798 13.7114 7.33331 15.0001 7.33331ZM9.33341 5.33331C10.8062 5.33331 12.0001 6.52722 12.0001 7.99998C12.0001 9.47274 10.8062 10.6666 9.33341 10.6666C7.86066 10.6666 6.66675 9.47274 6.66675 7.99998C6.66675 6.52722 7.86066 5.33331 9.33341 5.33331Z" fill="#24262C"/>
</mask>
<g mask="url(#mask0_109_27952)">
<path d="M-83.7937 92C-97.1271 92 -108.86 87.7333 -118.994 79.2C-128.594 70.1333 -133.394 56 -133.394 36.8C-133.394 17.6 -128.594 3.46666 -118.994 -5.60002C-108.86 -14.6667 -97.1271 -19.2 -83.7937 -19.2H130.606C143.94 -19.2 155.406 -14.6667 165.006 -5.60002C175.14 2.93332 180.206 16.8 180.206 36C180.206 55.2 175.14 69.3333 165.006 78.4C155.406 87.4667 143.94 92 130.606 92H-83.7937Z" fill="#252C38"/>
</g>
</svg>
