<svg width="16" height="16" viewBox="0 0 16 16" fill="none" xmlns="http://www.w3.org/2000/svg">
<mask id="mask0_109_27826" style="mask-type:alpha" maskUnits="userSpaceOnUse" x="1" y="2" width="14" height="13">
<path fill-rule="evenodd" clip-rule="evenodd" d="M12.6666 2.66666C13.403 2.66666 13.9999 3.26361 13.9999 3.99999L14.0006 8.17878C14.3988 8.40942 14.6666 8.8401 14.6666 9.33332V14.3333C14.6666 14.5174 14.5173 14.6667 14.3333 14.6667H13.6666C13.4825 14.6667 13.3333 14.5174 13.3333 14.3333V13.3333H2.66659V14.3333C2.66659 14.5174 2.51735 14.6667 2.33325 14.6667H1.66659C1.48249 14.6667 1.33325 14.5174 1.33325 14.3333V9.33332C1.33325 8.83982 1.60136 8.40894 1.99987 8.17839L1.99992 3.99999C1.99992 3.26361 2.59687 2.66666 3.33325 2.66666H12.6666ZM12.6666 9.33332H3.33325C2.99136 9.33332 2.70958 9.59068 2.67107 9.92224L2.66659 9.99999V11.3333H13.3333V9.99999C13.3333 9.6318 13.0348 9.33332 12.6666 9.33332ZM11.3333 5.99999H8.66659V7.99999H11.9999V6.66666C11.9999 6.32477 11.7426 6.04298 11.411 6.00447L11.3333 5.99999ZM7.33325 5.99999H4.66659C4.32469 5.99999 4.04291 6.25735 4.0044 6.58891L3.99992 6.66666V7.99999H7.33325V5.99999Z" fill="#3170E7"/>
</mask>
<g mask="url(#mask0_109_27826)">
<path d="M-87.7937 88C-101.127 88 -112.86 83.7333 -122.994 75.2C-132.594 66.1333 -137.394 52 -137.394 32.8C-137.394 13.6 -132.594 -0.53334 -122.994 -9.60002C-112.86 -18.6667 -101.127 -23.2 -87.7937 -23.2H126.606C139.94 -23.2 151.406 -18.6667 161.006 -9.60002C171.14 -1.06668 176.206 12.8 176.206 32C176.206 51.2 171.14 65.3333 161.006 74.4C151.406 83.4667 139.94 88 126.606 88H-87.7937Z" fill="#2067DA"/>
</g>
</svg>
