<svg width="24" height="24" viewBox="0 0 24 24" fill="none" xmlns="http://www.w3.org/2000/svg">
<mask id="mask0_1_56740" style="mask-type:alpha" maskUnits="userSpaceOnUse" x="2" y="1" width="20" height="22">
<path fill-rule="evenodd" clip-rule="evenodd" d="M20.7899 1.07887C18.8937 1.32636 15.2085 1.80734 12 1.80734C8.79147 1.80734 5.10633 1.32636 3.21008 1.07887C2.97872 1.04867 2.77399 1.02195 2.6 1C2.3 1 2 1.20183 2 1.6055V11.2936C2 19.0642 12 23 12 23C12 23 22 19.1651 22 11.2936V1.6055C22 1.20183 21.7 1 21.4 1C21.226 1.02195 21.0213 1.04867 20.7899 1.07887ZM18.7943 5.18156C18.3838 4.88974 17.8309 4.94988 17.4808 5.3607L11.0921 12.8548L7.45116 8.84787L7.35623 8.76056L7.32988 8.74047C6.92758 8.43378 6.37331 8.47489 6.01189 8.87263L5.30897 9.64616C4.89701 10.0995 4.89701 10.8404 5.30897 11.2937L10.0589 16.5208L10.157 16.6175L10.1723 16.631C10.788 17.1735 11.6897 17.1172 12.2444 16.4662L19.7144 7.70346C20.1136 7.23494 20.0912 6.49433 19.6669 6.05659L18.9185 5.28445L18.8211 5.20065L18.7943 5.18156Z" fill="#24262C"/>
</mask>
<g mask="url(#mask0_1_56740)">
<path d="M-83.7937 92C-97.1271 92 -108.86 87.7333 -118.994 79.2C-128.594 70.1333 -133.394 56 -133.394 36.8C-133.394 17.6 -128.594 3.46666 -118.994 -5.60002C-108.86 -14.6667 -97.1271 -19.2 -83.7937 -19.2H130.606C143.94 -19.2 155.406 -14.6667 165.006 -5.60002C175.14 2.93332 180.206 16.8 180.206 36C180.206 55.2 175.14 69.3333 165.006 78.4C155.406 87.4667 143.94 92 130.606 92H-83.7937Z" fill="#007E3E"/>
</g>
</svg>
