<svg width="24" height="24" viewBox="0 0 24 24" fill="none" xmlns="http://www.w3.org/2000/svg">
<mask id="mask0_109_27899" style="mask-type:alpha" maskUnits="userSpaceOnUse" x="2" y="1" width="21" height="21">
<path fill-rule="evenodd" clip-rule="evenodd" d="M10.5 1.91669C15.1944 1.91669 19 5.5637 19 10.0625C19 11.8801 18.3788 13.5587 17.3288 14.9139L22.3839 19.7571C22.872 20.2249 22.872 20.9834 22.3839 21.4512C21.9283 21.8879 21.2085 21.917 20.7176 21.5386L20.6161 21.4512L15.5623 16.6068C14.1482 17.613 12.3966 18.2084 10.5 18.2084C5.80558 18.2084 2 14.5613 2 10.0625C2 5.5637 5.80558 1.91669 10.5 1.91669ZM10.5 4.31252C7.18629 4.31252 4.5 6.88688 4.5 10.0625C4.5 13.2382 7.18629 15.8125 10.5 15.8125C12.1232 15.8125 13.5959 15.1948 14.676 14.1913C14.694 14.1679 14.7155 14.1456 14.7381 14.124L14.8083 14.0645C15.8554 13.0294 16.5 11.6181 16.5 10.0625C16.5 6.88688 13.8137 4.31252 10.5 4.31252Z" fill="#6B7388"/>
</mask>
<g mask="url(#mask0_109_27899)">
<path d="M-83.7937 92.0488C-97.1271 92.0488 -108.86 87.7822 -118.994 79.2488C-128.594 70.1822 -133.394 56.0488 -133.394 36.8488C-133.394 17.6488 -128.594 3.51549 -118.994 -5.55119C-108.86 -14.6179 -97.1271 -19.1512 -83.7937 -19.1512H130.606C143.94 -19.1512 155.406 -14.6179 165.006 -5.55119C175.14 2.98215 180.206 16.8488 180.206 36.0488C180.206 55.2488 175.14 69.3822 165.006 78.4488C155.406 87.5155 143.94 92.0488 130.606 92.0488H-83.7937Z" fill="#5E6B82"/>
</g>
</svg>
