<svg width="16" height="16" viewBox="0 0 16 16" fill="none" xmlns="http://www.w3.org/2000/svg">
<path fill-rule="evenodd" clip-rule="evenodd" d="M2.00016 4C2.36835 4 2.66683 4.29848 2.66683 4.66667V8.66667H13.3335C14.0699 8.66667 14.6668 9.26362 14.6668 10V14.2394C14.6668 14.3879 14.6514 14.4418 14.6223 14.4961C14.5933 14.5505 14.5506 14.5931 14.4963 14.6221C14.442 14.6512 14.3881 14.6667 14.2395 14.6667H13.7608C13.6122 14.6667 13.5583 14.6512 13.504 14.6221C13.4497 14.5931 13.4071 14.5505 13.378 14.4961C13.3538 14.4509 13.339 14.4059 13.3348 14.3062L13.3335 12H2.66683V14.2394C2.66683 14.3879 2.65136 14.4418 2.62231 14.4961C2.59326 14.5505 2.55062 14.5931 2.4963 14.6221C2.44198 14.6512 2.3881 14.6667 2.23952 14.6667H1.76081C1.61222 14.6667 1.55834 14.6512 1.50402 14.6221C1.4497 14.5931 1.40707 14.5505 1.37802 14.4961C1.35381 14.4509 1.33903 14.4059 1.33478 14.3062L1.3335 4.66667C1.3335 4.29848 1.63197 4 2.00016 4ZM4.66683 5.33333C5.40321 5.33333 6.00016 5.93029 6.00016 6.66667C6.00016 7.40305 5.40321 8 4.66683 8C3.93045 8 3.3335 7.40305 3.3335 6.66667C3.3335 5.93029 3.93045 5.33333 4.66683 5.33333ZM10.6668 4.66667C12.1396 4.66667 13.3335 5.86057 13.3335 7.33333V8H6.66683V4.66667H10.6668Z" fill="#24262C"/>
</svg>
