<svg width="16" height="16" viewBox="0 0 16 16" fill="none" xmlns="http://www.w3.org/2000/svg">
<path fill-rule="evenodd" clip-rule="evenodd" d="M10.1668 0.666626C10.443 0.666626 10.6668 0.890484 10.6668 1.16663V3.66663C10.6668 3.85072 10.8161 3.99996 11.0002 3.99996C11.1638 3.99996 11.2999 3.88204 11.3281 3.72654L11.3335 3.66663V2.66663H13.3335C14.0699 2.66663 14.6668 3.26358 14.6668 3.99996V13.3333C14.6668 14.0697 14.0699 14.6666 13.3335 14.6666H2.66683C1.93045 14.6666 1.3335 14.0697 1.3335 13.3333V3.99996C1.3335 3.26358 1.93045 2.66663 2.66683 2.66663H5.00016V1.16663C5.00016 0.890484 5.22402 0.666626 5.50016 0.666626C5.77631 0.666626 6.00016 0.890484 6.00016 1.16663V3.66663C6.00016 3.85072 6.1494 3.99996 6.3335 3.99996C6.49714 3.99996 6.63323 3.88204 6.66146 3.72654L6.66683 3.66663V2.66663H9.66683V1.16663C9.66683 0.890484 9.89069 0.666626 10.1668 0.666626ZM13.3335 5.99996H2.66683V12.6666C2.66683 13.0085 2.92419 13.2903 3.25575 13.3288L3.3335 13.3333H12.6668C13.0087 13.3333 13.2905 13.0759 13.329 12.7444L13.3335 12.6666V5.99996ZM11.3335 7.33329V8.66663H10.0002V7.33329H11.3335ZM8.66683 7.33329V8.66663H7.3335V7.33329H8.66683ZM6.00016 7.33329V8.66663H4.66683V7.33329H6.00016Z" fill="#24262C"/>
</svg>
