<svg width="16" height="16" viewBox="0 0 16 16" fill="none" xmlns="http://www.w3.org/2000/svg">
<path fill-rule="evenodd" clip-rule="evenodd" d="M13.3333 1.33334C13.7015 1.33334 14 1.63182 14 2.00001L14.0005 8.89445C13.5833 8.74694 13.1344 8.66668 12.6667 8.66668C10.4575 8.66668 8.66667 10.4575 8.66667 12.6667C8.66667 13.3955 8.8616 14.0788 9.20217 14.6673L2.66667 14.6667C2.29848 14.6667 2 14.3682 2 14V2.00001C2 1.63182 2.29848 1.33334 2.66667 1.33334H13.3333ZM7.66667 6.66668H3.66667C3.50303 6.66668 3.36693 6.78459 3.3387 6.94009L3.33333 7.00001V7.66668C3.33333 7.83032 3.45125 7.96642 3.60675 7.99464L3.66667 8.00001H7.66667C7.83031 8.00001 7.96641 7.88209 7.99463 7.72659L8 7.66668V7.00001C8 6.83637 7.88208 6.70027 7.72658 6.67205L7.66667 6.66668ZM14.1953 10.1953L15.1381 11.1381L13.61 12.6667L15.1381 14.1953L14.1953 15.1381L12.6667 13.61L11.1381 15.1381L10.1953 14.1953L11.7233 12.6667L10.1953 11.1381L11.1381 10.1953L12.6667 11.7233L14.1953 10.1953ZM12.3333 3.33334L12.3933 3.33871C12.5293 3.36341 12.6366 3.4707 12.6613 3.60676L12.6667 3.66668V4.33334L12.6613 4.39326C12.6366 4.52932 12.5293 4.63661 12.3933 4.66131L12.3333 4.66668H3.66667L3.60675 4.66131C3.47069 4.63661 3.3634 4.52932 3.3387 4.39326L3.33333 4.33334V3.66668L3.3387 3.60676C3.3634 3.4707 3.47069 3.36341 3.60675 3.33871L3.66667 3.33334H12.3333Z" fill="#2067DA"/>
</svg>
