<svg width="16" height="16" viewBox="0 0 16 16" fill="none" xmlns="http://www.w3.org/2000/svg">
<path fill-rule="evenodd" clip-rule="evenodd" d="M13.3333 1.33337C13.7015 1.33337 14 1.63185 14 2.00004V14C14 14.3682 13.7015 14.6667 13.3333 14.6667H2.66667C2.29848 14.6667 2 14.3682 2 14V2.00004C2 1.63185 2.29848 1.33337 2.66667 1.33337H13.3333ZM7 10H3.66667C3.50303 10 3.36693 10.118 3.3387 10.2735L3.33333 10.3334V11C3.33333 11.1637 3.45125 11.2998 3.60675 11.328L3.66667 11.3334H7C7.16364 11.3334 7.29974 11.2155 7.32796 11.06L7.33333 11V10.3334C7.33333 10.1697 7.21542 10.0336 7.05992 10.0054L7 10ZM12.3333 6.66671H3.66667C3.50303 6.66671 3.36693 6.78462 3.3387 6.94012L3.33333 7.00004V7.66671C3.33333 7.83035 3.45125 7.96645 3.60675 7.99467L3.66667 8.00004H12.3333C12.497 8.00004 12.6331 7.88212 12.6613 7.72662L12.6667 7.66671V7.00004C12.6667 6.8364 12.5487 6.7003 12.3932 6.67208L12.3333 6.66671ZM12.3333 3.33337H3.66667C3.50303 3.33337 3.36693 3.45129 3.3387 3.60679L3.33333 3.66671V4.33337C3.33333 4.49701 3.45125 4.63311 3.60675 4.66134L3.66667 4.66671H12.3333C12.497 4.66671 12.6331 4.54879 12.6613 4.39329L12.6667 4.33337V3.66671C12.6667 3.50307 12.5487 3.36697 12.3932 3.33874L12.3333 3.33337Z" fill="#2067DA"/>
</svg>
