<svg width="20" height="20" viewBox="0 0 20 20" fill="none" xmlns="http://www.w3.org/2000/svg">
<mask id="mask0_1_55976" style="mask-type:alpha" maskUnits="userSpaceOnUse" x="1" y="1" width="18" height="18">
<path fill-rule="evenodd" clip-rule="evenodd" d="M4.1665 8.33336V18.3334H1.6665V9.16669C1.6665 8.73933 1.9882 8.3871 2.40265 8.33897L2.49984 8.33336H4.1665ZM5.83317 1.81708C5.87907 1.81708 5.92489 1.82087 5.97017 1.82842L14.3035 3.2173C14.7053 3.28428 14.9998 3.63193 14.9998 4.0393V9.16624L17.4998 9.16669C17.9601 9.16669 18.3332 9.53979 18.3332 10V18.3334H11.6665V14.1667C11.6665 13.7393 11.3448 13.3871 10.9304 13.339L10.8332 13.3334H9.1665C8.73914 13.3334 8.38691 13.6551 8.33878 14.0695L8.33317 14.1667V18.3334H4.99984V2.65041C4.99984 2.19017 5.37293 1.81708 5.83317 1.81708ZM17.4998 14.1667H14.9998V15H17.4998V14.1667ZM17.4998 11.6667H14.9998V12.5H17.4998V11.6667ZM12.9165 8.33336H10.8332V10.4167H11.6754V9.16669H12.9165V8.33336ZM9.58317 8.33336H7.49984V10.4167H8.34202V9.16669H9.58317V8.33336ZM12.9165 5.00003H10.8332V7.08336H11.6754V5.83336H12.9165V5.00003ZM9.58317 5.00003H7.49984V7.08336H8.34202V5.83336H9.58317V5.00003Z" fill="#E03126"/>
</mask>
<g mask="url(#mask0_1_55976)">
<path d="M-85.7937 90C-99.1271 90 -110.86 85.7333 -120.994 77.2C-130.594 68.1333 -135.394 54 -135.394 34.8C-135.394 15.6 -130.594 1.46666 -120.994 -7.60002C-110.86 -16.6667 -99.1271 -21.2 -85.7937 -21.2H128.606C141.94 -21.2 153.406 -16.6667 163.006 -7.60002C173.14 0.933317 178.206 14.8 178.206 34C178.206 53.2 173.14 67.3333 163.006 76.4C153.406 85.4667 141.94 90 128.606 90H-85.7937Z" fill="#252C38"/>
</g>
</svg>
