<svg width="20" height="20" viewBox="0 0 20 20" fill="none" xmlns="http://www.w3.org/2000/svg">
<mask id="mask0_1_55973" style="mask-type:alpha" maskUnits="userSpaceOnUse" x="1" y="1" width="18" height="19">
<path fill-rule="evenodd" clip-rule="evenodd" d="M15.7567 13.7679L18.1273 16.4348C18.1885 16.5036 18.1823 16.6089 18.1135 16.6701C18.089 16.6918 18.0587 16.7059 18.0263 16.7105L15.4168 17.0833L15.0538 19.6243C15.0408 19.7154 14.9563 19.7787 14.8652 19.7657C14.8239 19.7598 14.7862 19.7386 14.7598 19.7062L11.7692 16.0516C13.3217 15.6972 14.7004 14.8864 15.7567 13.7679ZM8.23135 16.0516L5.24071 19.7063C5.21426 19.7386 5.17664 19.7598 5.13529 19.7658C5.05936 19.7766 4.98807 19.7344 4.95889 19.6674L4.94673 19.6243L4.58373 17.0834L1.97415 16.7106C1.94176 16.7059 1.91145 16.6919 1.887 16.6701C1.83196 16.6212 1.81698 16.544 1.84451 16.4799L1.87315 16.4348L4.24377 13.768C5.30009 14.8865 6.67883 15.6973 8.23135 16.0516ZM10 1.66669C13.6819 1.66669 16.6667 4.65146 16.6667 8.33335C16.6667 12.0153 13.6819 15 10 15C6.3181 15 3.33333 12.0153 3.33333 8.33335C3.33333 4.65146 6.3181 1.66669 10 1.66669ZM13.1611 5.66077L9.14707 9.67335L7.23702 7.88166L6.09712 9.09755L8.59712 11.4413L8.67595 11.5067C8.97576 11.7259 9.38705 11.7193 9.67964 11.4905L9.75632 11.4226L14.3397 6.83928L13.1611 5.66077Z" fill="#24262C"/>
</mask>
<g mask="url(#mask0_1_55973)">
<path d="M-85.7937 90.0488C-99.1271 90.0488 -110.86 85.7822 -120.994 77.2488C-130.594 68.1822 -135.394 54.0488 -135.394 34.8488C-135.394 15.6488 -130.594 1.51549 -120.994 -7.55119C-110.86 -16.6179 -99.1271 -21.1512 -85.7937 -21.1512H128.606C141.94 -21.1512 153.406 -16.6179 163.006 -7.55119C173.14 0.982145 178.206 14.8488 178.206 34.0488C178.206 53.2488 173.14 67.3822 163.006 76.4488C153.406 85.5155 141.94 90.0488 128.606 90.0488H-85.7937Z" fill="#252C38"/>
</g>
</svg>
