<svg width="14" height="14" viewBox="0 0 14 14" fill="none" xmlns="http://www.w3.org/2000/svg">
<mask id="mask0_6179_1627" style="mask-type:alpha" maskUnits="userSpaceOnUse" x="2" y="1" width="10" height="13">
<path fill-rule="evenodd" clip-rule="evenodd" d="M9.63287 11.6667L10.8048 13.4167H3.21476L4.3752 11.6667H9.63287ZM7.00016 1.16687C8.14233 1.16687 9.12816 1.28062 9.95591 1.50987C10.9668 1.78929 11.6668 2.71037 11.6668 3.75862V8.7502C11.6668 10.0388 10.6221 11.0835 9.3335 11.0835H4.66683C3.37825 11.0835 2.3335 10.0388 2.3335 8.7502V3.75862C2.3335 2.71037 3.03408 1.78929 4.045 1.50987C4.80377 1.29972 5.69488 1.18663 6.71789 1.16924L7.00016 1.16687ZM9.771 8.45854C9.3685 8.45854 9.04183 8.7852 9.04183 9.1877C9.04183 9.58962 9.3685 9.91687 9.771 9.91687C10.1741 9.91687 10.5002 9.58962 10.5002 9.1877C10.5002 8.81036 10.2136 8.49967 9.84561 8.4623L9.771 8.45854ZM4.22933 8.45854C3.82683 8.45854 3.50016 8.7852 3.50016 9.1877C3.50016 9.58962 3.82683 9.91687 4.22933 9.91687C4.63241 9.91687 4.9585 9.58962 4.9585 9.1877C4.9585 8.81036 4.6719 8.49967 4.30394 8.4623L4.22933 8.45854ZM7.00016 2.04187C8.06825 2.04187 8.9765 2.14745 9.722 2.35337C10.2858 2.50929 10.6947 2.98352 10.7768 3.54941L10.7883 3.65654L10.7918 3.75862V3.90095L9.80716 6.27979C9.65116 6.65733 9.31057 6.9217 8.91523 6.9851L8.82308 6.99612L8.72916 7.0002H5.18716C4.77008 7.0002 4.39022 6.77839 4.18255 6.42724L4.13775 6.34395L4.09983 6.25704L3.2085 3.96804V3.75862L3.212 3.65654C3.25516 3.04404 3.67983 2.51904 4.27833 2.35337C5.02441 2.14745 5.93208 2.04187 7.00016 2.04187Z" fill="#24262C"/>
</mask>
<g mask="url(#mask0_6179_1627)">
<path d="M-88.7937 87C-102.127 87 -113.86 82.7333 -123.994 74.2C-133.594 65.1333 -138.394 51 -138.394 31.8C-138.394 12.6 -133.594 -1.53334 -123.994 -10.6C-113.86 -19.6667 -102.127 -24.2 -88.7937 -24.2H125.606C138.94 -24.2 150.406 -19.6667 160.006 -10.6C170.14 -2.06668 175.206 11.8 175.206 31C175.206 50.2 170.14 64.3333 160.006 73.4C150.406 82.4667 138.94 87 125.606 87H-88.7937Z" fill="#252C38"/>
</g>
</svg>
