<svg width="14" height="14" viewBox="0 0 14 14" fill="none" xmlns="http://www.w3.org/2000/svg">
<mask id="mask0_6179_5685" style="mask-type:alpha" maskUnits="userSpaceOnUse" x="1" y="1" width="13" height="13">
<path fill-rule="evenodd" clip-rule="evenodd" d="M10.5002 5.25C12.1109 5.25 13.4167 6.55184 13.4167 8.15768C13.4167 8.69183 13.2723 9.19245 13.0203 9.62226L10.7432 13.0509C10.654 13.185 10.473 13.2216 10.3388 13.1324C10.3065 13.111 10.2787 13.0832 10.2572 13.0509L7.98006 9.62226C7.72804 9.19245 7.58333 8.69183 7.58333 8.15768C7.58333 6.55184 8.88912 5.25 10.5002 5.25ZM1.17772 1.79582C1.22859 1.66198 1.36735 1.58732 1.50331 1.61258L1.55399 1.62681L4.66627 2.80948V12.4041L1.31421 10.6348C1.23449 10.5927 1.17964 10.5168 1.16357 10.43L1.15869 10.3769V1.89945C1.15869 1.86404 1.16514 1.82892 1.17772 1.79582ZM8.46402 1.47656L12.0544 2.85017C12.1512 2.88719 12.2198 2.97208 12.2374 3.0717L12.2418 3.12258L12.2424 4.92935C11.7238 4.65013 11.1303 4.49167 10.4997 4.49167C8.47042 4.49167 6.82454 6.13244 6.82454 8.15768C6.82454 8.81534 6.99929 9.44961 7.32542 10.0058L7.98643 11.0024L5.24943 12.4111V2.80248L8.46402 1.47656ZM10.5 7C9.85567 7 9.33333 7.51189 9.33333 8.14333C9.33333 8.77478 9.85567 9.28667 10.5 9.28667C11.1443 9.28667 11.6667 8.77478 11.6667 8.14333C11.6667 7.51189 11.1443 7 10.5 7Z" fill="#24262C"/>
</mask>
<g mask="url(#mask0_6179_5685)">
<path d="M-88.7937 87.0488C-102.127 87.0488 -113.86 82.7822 -123.994 74.2488C-133.594 65.1822 -138.394 51.0488 -138.394 31.8488C-138.394 12.6488 -133.594 -1.48451 -123.994 -10.5512C-113.86 -19.6179 -102.127 -24.1512 -88.7937 -24.1512H125.606C138.94 -24.1512 150.406 -19.6179 160.006 -10.5512C170.14 -2.01785 175.206 11.8488 175.206 31.0488C175.206 50.2488 170.14 64.3822 160.006 73.4488C150.406 82.5155 138.94 87.0488 125.606 87.0488H-88.7937Z" fill="#252C38"/>
</g>
</svg>
