<svg width="24" height="24" viewBox="0 0 24 24" fill="none" xmlns="http://www.w3.org/2000/svg">
<mask id="mask0_1_56734" style="mask-type:alpha" maskUnits="userSpaceOnUse" x="2" y="1" width="20" height="22">
<path fill-rule="evenodd" clip-rule="evenodd" d="M12 1.80734C15.2085 1.80734 18.8937 1.32636 20.7899 1.07887C21.0213 1.04867 21.226 1.02195 21.4 1C21.7 1 22 1.20183 22 1.6055V11.2936C22 19.1651 12 23 12 23C12 23 2 19.0642 2 11.2936V1.6055C2 1.20183 2.3 1 2.6 1C2.77398 1.02195 2.97871 1.04867 3.21007 1.07886L3.21008 1.07887C5.10633 1.32636 8.79147 1.80734 12 1.80734ZM14 13V18H10V13H5V9H10V4H14V9H19V13H14Z" fill="#24262C"/>
</mask>
<g mask="url(#mask0_1_56734)">
<path d="M-83.7937 92C-97.1271 92 -108.86 87.7333 -118.994 79.2C-128.594 70.1333 -133.394 56 -133.394 36.8C-133.394 17.6 -128.594 3.46666 -118.994 -5.60002C-108.86 -14.6667 -97.1271 -19.2 -83.7937 -19.2H130.606C143.94 -19.2 155.406 -14.6667 165.006 -5.60002C175.14 2.93332 180.206 16.8 180.206 36C180.206 55.2 175.14 69.3333 165.006 78.4C155.406 87.4667 143.94 92 130.606 92H-83.7937Z" fill="#007E3E"/>
</g>
</svg>
